<?xml version="1.0" encoding="UTF-8"?>
<!DOCTYPE svg PUBLIC "-//W3C//DTD SVG 1.1//EN" "http://www.w3.org/Graphics/SVG/1.1/DTD/svg11.dtd">
<!-- Creator: CorelDRAW X8 -->
<svg xmlns="http://www.w3.org/2000/svg" xml:space="preserve" width="220.2mm" height="220.2mm" version="1.1" style="shape-rendering:geometricPrecision; text-rendering:geometricPrecision; image-rendering:optimizeQuality; fill-rule:evenodd; clip-rule:evenodd"
viewBox="0 0 4200 4200"
 xmlns:xlink="http://www.w3.org/1999/xlink"
 enable-background="new 0 0 48.0 48.0">
 <defs>
  <style type="text/css">
   <![CDATA[
    .str0 {stroke:black;stroke-width:194.532;stroke-linecap:round;stroke-linejoin:round;stroke-opacity:0.000000}
    .str1 {stroke:black;stroke-width:180.228;stroke-linecap:round;stroke-linejoin:round}
    .fil4 {fill:none;fill-rule:nonzero}
    .fil2 {fill:none;fill-rule:nonzero}
    .fil1 {fill:#CBEAFF;fill-rule:nonzero}
    .fil0 {fill:#FCD2C6;fill-rule:nonzero}
    .fil5 {fill:black;fill-rule:nonzero;fill-opacity:0.000000}
    .fil3 {fill:black;fill-rule:nonzero;fill-opacity:0.333333}
   ]]>
  </style>
 </defs>
 <g id="Layer_x0020_1">
  <metadata id="CorelCorpID_0Corel-Layer"/>
  <g id="_541679480">
   <g>
    <path class="fil0" d="M2100 97c-1106,0 -2003,897 -2003,2003 0,1105 897,2002 2003,2002 1105,0 2002,-897 2002,-2002 0,-1106 -897,-2003 -2002,-2003z"/>
    <g>
     <path class="fil1" d="M2100 97c-1106,0 -2003,897 -2003,2003 0,1105 897,2002 2003,2002 1105,0 2002,-897 2002,-2002 0,-1106 -897,-2003 -2002,-2003z"/>
     <path id="1" class="fil2 str0" d="M2100 97c-1106,0 -2003,897 -2003,2003 0,1105 897,2002 2003,2002 1105,0 2002,-897 2002,-2002 0,-1106 -897,-2003 -2002,-2003z"/>
    </g>
   </g>
   <g id="_541678952">
    <path class="fil3" d="M2809 1706c0,-210 -105,-315 -315,-315l-788 0c-210,0 -315,105 -315,315l0 788c0,210 105,315 315,315l788 0c210,0 315,-105 315,-315l0 -788z"/>
    <path class="fil4 str1" d="M2809 1706c0,-210 -105,-315 -315,-315l-788 0c-210,0 -315,105 -315,315l0 788c0,210 105,315 315,315l788 0c210,0 315,-105 315,-315l0 -788z"/>
   </g>
   <g id="_541679408">
    <path class="fil5" d="M2415 1942l-118 0c-119,0 -197,79 -197,197l0 592m0 -395l315 0m-315 0l0 0 0 0z"/>
    <path class="fil4 str1" d="M2415 1942l-118 0c-119,0 -197,79 -197,197l0 592m0 -395l315 0m-315 0l0 0 0 0z"/>
   </g>
  </g>
 </g>
</svg>
