<?xml version="1.0" encoding="UTF-8"?>
<!DOCTYPE svg PUBLIC "-//W3C//DTD SVG 1.1//EN" "http://www.w3.org/Graphics/SVG/1.1/DTD/svg11.dtd">
<!-- Creator: CorelDRAW X8 -->
<svg xmlns="http://www.w3.org/2000/svg" xml:space="preserve" width="220.2mm" height="220.2mm" version="1.1" style="shape-rendering:geometricPrecision; text-rendering:geometricPrecision; image-rendering:optimizeQuality; fill-rule:evenodd; clip-rule:evenodd"
viewBox="0 0 49254 49254"
 xmlns:xlink="http://www.w3.org/1999/xlink"
 enable-background="new 0 0 48.0 48.0">
 <defs>
  <style type="text/css">
   <![CDATA[
    .str0 {stroke:black;stroke-width:2281.51;stroke-linecap:round;stroke-linejoin:round;stroke-opacity:0.000000}
    .str2 {stroke:black;stroke-width:2281.51;stroke-linecap:round;stroke-linejoin:round;stroke-opacity:0.333333}
    .str1 {stroke:black;stroke-width:2113.75;stroke-linecap:round;stroke-linejoin:round}
    .fil4 {fill:none;fill-rule:nonzero}
    .fil2 {fill:none;fill-rule:nonzero}
    .fil1 {fill:#CBEAFF;fill-rule:nonzero}
    .fil0 {fill:#FCD2C6;fill-rule:nonzero}
    .fil3 {fill:black;fill-rule:nonzero;fill-opacity:0.000000}
    .fil5 {fill:black;fill-rule:nonzero;fill-opacity:0.333333}
   ]]>
  </style>
 </defs>
 <g id="Layer_x0020_1">
  <metadata id="CorelCorpID_0Corel-Layer"/>
  <g id="_541677752">
   <g>
    <path class="fil0" d="M24627 1141c-12966,0 -23486,10520 -23486,23486 0,12966 10520,23486 23486,23486 12966,0 23486,-10520 23486,-23486 0,-12966 -10520,-23486 -23486,-23486z"/>
    <g>
     <path class="fil1" d="M24627 1141c-12966,0 -23486,10520 -23486,23486 0,12966 10520,23486 23486,23486 12966,0 23486,-10520 23486,-23486 0,-12966 -10520,-23486 -23486,-23486z"/>
     <path id="1" class="fil2 str0" d="M24627 1141c-12966,0 -23486,10520 -23486,23486 0,12966 10520,23486 23486,23486 12966,0 23486,-10520 23486,-23486 0,-12966 -10520,-23486 -23486,-23486z"/>
    </g>
   </g>
   <g id="_541677656">
    <path class="fil3" d="M28189 16309l-2378 0c-789,0 -1579,0 -2368,0 -796,0 -1589,0 -2378,0l-1194 0c-2375,0 -3562,1187 -3562,3562l0 9512c0,2375 1187,3562 3562,3562l9512 0c2375,0 3562,-1187 3562,-3562l0 -8318m-489 -4267l0 0zm-7829 3915c2163,0 3914,1751 3914,3914 0,2163 -1751,3914 -3914,3914 -2163,0 -3914,-1751 -3914,-3914 0,-2163 1751,-3914 3914,-3914z"/>
    <path class="fil4 str1" d="M28189 16309l-2378 0c-789,0 -1579,0 -2368,0 -796,0 -1589,0 -2378,0l-1194 0c-2375,0 -3562,1187 -3562,3562l0 9512c0,2375 1187,3562 3562,3562l9512 0c2375,0 3562,-1187 3562,-3562l0 -8318m-489 -4267l0 0zm-7829 3915c2163,0 3914,1751 3914,3914 0,2163 -1751,3914 -3914,3914 -2163,0 -3914,-1751 -3914,-3914 0,-2163 1751,-3914 3914,-3914z"/>
   </g>
   <path class="fil5 str2" d="M16143 18266l0 12722c0,1172 950,2123 2123,2123l12722 0c1172,0 2123,-951 2123,-2123l0 -12722c0,-1173 -951,-2123 -2123,-2123l-12722 0c-1173,0 -2123,950 -2123,2123l0 0z"/>
  </g>
 </g>
</svg>
