<?xml version="1.0" encoding="UTF-8"?>
<!DOCTYPE svg PUBLIC "-//W3C//DTD SVG 1.1//EN" "http://www.w3.org/Graphics/SVG/1.1/DTD/svg11.dtd">
<!-- Creator: CorelDRAW X8 -->
<svg xmlns="http://www.w3.org/2000/svg" xml:space="preserve" width="220.2mm" height="220.2mm" version="1.1" style="shape-rendering:geometricPrecision; text-rendering:geometricPrecision; image-rendering:optimizeQuality; fill-rule:evenodd; clip-rule:evenodd"
viewBox="0 0 6583 6583"
 xmlns:xlink="http://www.w3.org/1999/xlink">
 <defs>
  <style type="text/css">
   <![CDATA[
    .str0 {stroke:black;stroke-width:304.913;stroke-linecap:round;stroke-linejoin:round;stroke-opacity:0.000000}
    .str1 {stroke:black;stroke-width:282.493;stroke-linecap:round;stroke-linejoin:round}
    .fil4 {fill:none;fill-rule:nonzero}
    .fil2 {fill:none;fill-rule:nonzero}
    .fil5 {fill:black}
    .fil1 {fill:#CBEAFF;fill-rule:nonzero}
    .fil0 {fill:#FCD2C6;fill-rule:nonzero}
    .fil3 {fill:black;fill-rule:nonzero;fill-opacity:0.333333}
   ]]>
  </style>
 </defs>
 <g id="Layer_x0020_1">
  <metadata id="CorelCorpID_0Corel-Layer"/>
  <g id="_548329400">
   <path class="fil0" d="M3291 152c-1733,0 -3139,1406 -3139,3139 0,1733 1406,3139 3139,3139 1733,0 3139,-1406 3139,-3139 0,-1733 -1406,-3139 -3139,-3139z"/>
   <g>
    <path class="fil1" d="M3291 152c-1733,0 -3139,1406 -3139,3139 0,1733 1406,3139 3139,3139 1733,0 3139,-1406 3139,-3139 0,-1733 -1406,-3139 -3139,-3139z"/>
    <path id="1" class="fil2 str0" d="M3291 152c-1733,0 -3139,1406 -3139,3139 0,1733 1406,3139 3139,3139 1733,0 3139,-1406 3139,-3139 0,-1733 -1406,-3139 -3139,-3139z"/>
   </g>
  </g>
  <g>
   <path class="fil3" d="M4403 2674c0,-330 -165,-494 -494,-494l-1235 0c-330,0 -494,164 -494,494l0 1235c0,329 164,494 494,494l1235 0c329,0 494,-165 494,-494l0 -1235z"/>
   <path class="fil4 str1" d="M4403 2674c0,-330 -165,-494 -494,-494l-1235 0c-330,0 -494,164 -494,494l0 1235c0,329 164,494 494,494l1235 0c329,0 494,-165 494,-494l0 -1235z"/>
  </g>
  <path class="fil5" d="M3930 2781c-12,-7 -25,-14 -37,-22 -35,-23 -67,-51 -95,-81 -72,-82 -98,-165 -108,-223l0 0c-8,-48 -5,-79 -4,-79l-325 0 0 1256c0,17 0,34 -1,50 0,2 0,4 0,6 0,1 0,2 0,3 0,0 0,0 0,1 -7,91 -59,173 -139,219 -41,23 -87,35 -134,35 0,0 0,0 0,0 -152,0 -274,-123 -274,-276 0,-152 122,-276 274,-276 0,0 0,0 0,0 29,0 57,5 84,14l1 -331c-26,-3 -52,-5 -78,-5 -141,0 -279,50 -387,141 -56,49 -103,107 -139,172 -14,23 -66,118 -72,272 -4,88 22,179 35,216l0 1c8,22 38,97 88,161 40,50 88,95 141,132l0 0 0 0c158,107 332,100 332,100 30,-1 131,0 246,-54 127,-61 200,-150 200,-150 46,-54 83,-115 109,-181 29,-78 39,-170 39,-207l0 -667c4,3 56,37 56,37 0,0 76,49 194,80 85,23 199,28 199,28l0 -323c-40,5 -122,-8 -205,-49z"/>
 </g>
</svg>
